<?xml version="1.0" standalone="no"?>
<svg xmlns:xlink="http://www.w3.org/1999/xlink" id="wave" style="transform:rotate(0deg); transition: 0.3s" viewBox="0 0 1440 100" version="1.1" xmlns="http://www.w3.org/2000/svg"><defs><linearGradient id="sw-gradient-0" x1="0" x2="0" y1="1" y2="0"><stop stop-color="rgba(250, 250, 250, 1)" offset="0%"/><stop stop-color="rgba(250, 250, 250, 1)" offset="100%"/></linearGradient></defs><path style="transform:translate(0, 0px); opacity:1" fill="url(#sw-gradient-0)" d="M0,90L26.7,90C53.3,90,107,90,160,80C213.3,70,267,50,320,45C373.3,40,427,50,480,56.7C533.3,63,587,67,640,70C693.3,73,747,77,800,70C853.3,63,907,47,960,48.3C1013.3,50,1067,70,1120,80C1173.3,90,1227,90,1280,80C1333.3,70,1387,50,1440,35C1493.3,20,1547,10,1600,10C1653.3,10,1707,20,1760,23.3C1813.3,27,1867,23,1920,21.7C1973.3,20,2027,20,2080,25C2133.3,30,2187,40,2240,51.7C2293.3,63,2347,77,2400,75C2453.3,73,2507,57,2560,53.3C2613.3,50,2667,60,2720,61.7C2773.3,63,2827,57,2880,45C2933.3,33,2987,17,3040,10C3093.3,3,3147,7,3200,16.7C3253.3,27,3307,43,3360,56.7C3413.3,70,3467,80,3520,71.7C3573.3,63,3627,37,3680,25C3733.3,13,3787,17,3813,18.3L3840,20L3840,100L3813.3,100C3786.7,100,3733,100,3680,100C3626.7,100,3573,100,3520,100C3466.7,100,3413,100,3360,100C3306.7,100,3253,100,3200,100C3146.7,100,3093,100,3040,100C2986.7,100,2933,100,2880,100C2826.7,100,2773,100,2720,100C2666.7,100,2613,100,2560,100C2506.7,100,2453,100,2400,100C2346.7,100,2293,100,2240,100C2186.7,100,2133,100,2080,100C2026.7,100,1973,100,1920,100C1866.7,100,1813,100,1760,100C1706.7,100,1653,100,1600,100C1546.7,100,1493,100,1440,100C1386.7,100,1333,100,1280,100C1226.7,100,1173,100,1120,100C1066.7,100,1013,100,960,100C906.7,100,853,100,800,100C746.7,100,693,100,640,100C586.7,100,533,100,480,100C426.7,100,373,100,320,100C266.7,100,213,100,160,100C106.7,100,53,100,27,100L0,100Z"/></svg>