<?xml version="1.0" standalone="no"?>
<svg xmlns:xlink="http://www.w3.org/1999/xlink" id="wave" style="transform:rotate(0deg); transition: 0.3s" viewBox="0 0 1440 100" version="1.1" xmlns="http://www.w3.org/2000/svg"><defs><linearGradient id="sw-gradient-0" x1="0" x2="0" y1="1" y2="0"><stop stop-color="rgba(235, 235, 235, 1)" offset="0%"/><stop stop-color="rgba(235, 235, 235, 1)" offset="100%"/></linearGradient></defs><path style="transform:translate(0, 0px); opacity:1" fill="url(#sw-gradient-0)" d="M0,0L26.7,11.7C53.3,23,107,47,160,46.7C213.3,47,267,23,320,23.3C373.3,23,427,47,480,55C533.3,63,587,57,640,50C693.3,43,747,37,800,43.3C853.3,50,907,70,960,68.3C1013.3,67,1067,43,1120,30C1173.3,17,1227,13,1280,18.3C1333.3,23,1387,37,1440,40C1493.3,43,1547,37,1600,43.3C1653.3,50,1707,70,1760,80C1813.3,90,1867,90,1920,76.7C1973.3,63,2027,37,2080,28.3C2133.3,20,2187,30,2240,43.3C2293.3,57,2347,73,2400,75C2453.3,77,2507,63,2560,56.7C2613.3,50,2667,50,2720,56.7C2773.3,63,2827,77,2880,80C2933.3,83,2987,77,3040,70C3093.3,63,3147,57,3200,45C3253.3,33,3307,17,3360,15C3413.3,13,3467,27,3520,31.7C3573.3,37,3627,33,3680,35C3733.3,37,3787,43,3813,46.7L3840,50L3840,100L3813.3,100C3786.7,100,3733,100,3680,100C3626.7,100,3573,100,3520,100C3466.7,100,3413,100,3360,100C3306.7,100,3253,100,3200,100C3146.7,100,3093,100,3040,100C2986.7,100,2933,100,2880,100C2826.7,100,2773,100,2720,100C2666.7,100,2613,100,2560,100C2506.7,100,2453,100,2400,100C2346.7,100,2293,100,2240,100C2186.7,100,2133,100,2080,100C2026.7,100,1973,100,1920,100C1866.7,100,1813,100,1760,100C1706.7,100,1653,100,1600,100C1546.7,100,1493,100,1440,100C1386.7,100,1333,100,1280,100C1226.7,100,1173,100,1120,100C1066.7,100,1013,100,960,100C906.7,100,853,100,800,100C746.7,100,693,100,640,100C586.7,100,533,100,480,100C426.7,100,373,100,320,100C266.7,100,213,100,160,100C106.7,100,53,100,27,100L0,100Z"/></svg>